<?xml version="1.0" encoding="UTF-8" standalone="no"?>
<svg
   xmlns:dc="http://purl.org/dc/elements/1.1/"
   xmlns:cc="http://creativecommons.org/ns#"
   xmlns:rdf="http://www.w3.org/1999/02/22-rdf-syntax-ns#"
   xmlns:svg="http://www.w3.org/2000/svg"
   xmlns="http://www.w3.org/2000/svg"
   viewBox="0 0 629.21332 346.26666"
   height="346.26666"
   width="629.21332"
   xml:space="preserve"
   id="svg2"
   version="1.1"><metadata
     id="metadata8"><rdf:RDF><cc:Work
         rdf:about=""><dc:format>image/svg+xml</dc:format><dc:type
           rdf:resource="http://purl.org/dc/dcmitype/StillImage" /></cc:Work></rdf:RDF></metadata><defs
     id="defs6" /><g
     transform="matrix(1.3333333,0,0,-1.3333333,0,346.26667)"
     id="g10"><g
       transform="scale(0.1)"
       id="g12"><path
         id="path14"
         style="fill:#ffffff;fill-opacity:1;fill-rule:nonzero;stroke:none"
         d="m 2103.28,2579.52 v -178.08 c 0,0 -1416.206,120.63 -1416.206,-878.89 0,-947.359 1257.606,-839.581 1378.516,-855.909 V 471.34 c 0,0 -2040.8283,-241.449 -2040.8283,1039.72 0,1189.14 1965.0283,1106.04 2078.5183,1068.46" /><path
         id="path16"
         style="fill:#ffffff;fill-opacity:1;fill-rule:nonzero;stroke:none"
         d="M 0.0859375,0 C -7.82031,-0.0390625 517.113,215.641 995.426,520.988 1058.58,507.309 1121.94,496.211 1184.63,487.238 959.301,370.422 695.473,254.5 390.918,143.898 116.098,44.1016 3.66016,0.0195313 0.0859375,0 M 1550.68,698.582 c -76.18,11.59 -155.36,27.887 -233.36,50.828 253.24,203.16 441.33,427.63 441.33,646.77 0,133.18 -330.53,151.51 -544.21,151.51 -40.57,0 -76.91,-0.66 -106,-1.32 -29.08,-0.66 -50.89,-1.32 -62.37,-1.32 -5.25,0 -8.34,0.13 -8.98,0.47 0,0 490.38,203.45 844.7,203.45 128.72,0 239.46,-26.84 302.24,-100.04 157.11,-183.2 -25.39,-556.8 -633.35,-950.348" /><path
         id="path18"
         style="fill:#ffffff;fill-opacity:1;fill-rule:nonzero;stroke:none"
         d="m 1184.63,487.238 c -62.69,8.973 -126.05,20.071 -189.204,33.75 112.334,71.711 222.214,148.461 321.894,228.422 78,-22.941 157.18,-39.238 233.36,-50.828 -108.34,-70.133 -230.21,-140.91 -366.05,-211.344" /><path
         id="path20"
         style="fill:#ffffff;fill-opacity:1;fill-rule:nonzero;stroke:none"
         d="m 3009.87,487.609 c -16.7,-3.058 -44.36,-6.828 -83.08,-11.379 -38.69,-4.55 -80.06,-6.832 -124.06,-6.832 -94.11,0 -158.99,28.461 -194.63,85.364 -35.67,56.91 -53.48,144.547 -53.48,262.918 v 1256.53 h 302.75 V 829.059 c 0,-36.418 4.54,-61.86 13.66,-76.258 9.11,-14.442 28.05,-21.621 56.92,-21.621 16.68,0 32.99,1.14 48.93,3.422 15.94,2.269 26.92,4.16 32.99,5.679 V 487.609" /><path
         id="path22"
         style="fill:#ffffff;fill-opacity:1;fill-rule:nonzero;stroke:none"
         d="m 3683.66,1379.93 c -50.09,0 -90.31,-18.21 -120.64,-54.63 -30.39,-36.42 -45.52,-75.12 -45.52,-116.1 V 724.352 c 16.67,-1.543 33.35,-2.661 50.06,-3.411 16.68,-0.793 32.62,-1.152 47.8,-1.152 42.48,0 77.41,4.922 104.73,14.813 27.32,9.839 48.93,28.808 64.85,56.898 15.94,28.07 26.95,66.762 33.02,116.102 6.04,49.289 9.11,113.418 9.11,192.348 0,57.65 -2.28,104.71 -6.83,141.13 -4.57,36.42 -12.53,64.87 -23.9,85.36 -11.4,20.49 -26.19,34.5 -44.39,42.11 -18.2,7.58 -40.98,11.38 -68.29,11.38 z M 3214.72,93.8086 V 1618.95 h 245.86 l 22.77,-93.33 c 34.88,34.9 75.09,62.59 120.64,83.08 45.52,20.49 98.63,30.73 159.33,30.73 62.23,0 116.84,-8.74 163.91,-26.17 47.01,-17.47 85.7,-45.92 116.09,-85.37 30.34,-39.48 53.09,-92.19 68.29,-158.2 15.13,-66.02 22.75,-148.35 22.75,-246.98 0,-124.448 -9.48,-229.159 -28.44,-314.14 -19,-85.011 -49.33,-153.289 -91.07,-204.859 -41.74,-51.609 -96.74,-88.43 -165.03,-110.41 -68.29,-21.969 -151.77,-33.012 -250.4,-33.012 -13.66,0 -27.32,0 -40.98,0 -13.63,0 -27.29,0.793 -40.94,2.281 V 93.8086 h -302.78" /><path
         id="path24"
         style="fill:#ffffff;fill-opacity:1;fill-rule:nonzero;stroke:none"
         d="M 4396.13,480.781 V 1576.74 h 268.44 l 34.34,-1095.959 h -302.78" /><path
         id="path26"
         style="fill:#ffffff;fill-opacity:1;fill-rule:nonzero;stroke:none"
         d="m 4709.46,2086.97 c 31.84,-94.92 -17.4,-201.02 -109.9,-237.09 -92.5,-36.07 -193.5,10.75 -225.81,104.62 -32.3,93.87 16.52,200.47 109.56,237.53 93.04,37.06 194.32,-10.14 226.15,-105.06" /></g></g></svg>