<svg width="512" height="512" viewBox="0 0 512 512" fill="none" xmlns="http://www.w3.org/2000/svg">
<rect width="512" height="512" fill="white"/>
<rect width="512" height="512" fill="#0D6EFD"/>
<path fill-rule="evenodd" clip-rule="evenodd" d="M356.08 155.92C349.6 149.44 344.8 142.72 340.96 134.8C337.12 127.36 334.48 118.96 332.8 110.32C318.88 118.24 304.96 127.12 291.28 137.44C277.36 148 263.92 160 250.72 172.96C233.92 189.76 218.8 216.4 208 231.76H136L64 304H136L184 256C175.84 274.48 159.52 327.52 160 328L184 352C184.48 352.48 237.52 336.64 256 328L208 376V448L280 376V304C295.36 293.2 322 277.84 338.8 261.28C352 248.08 364 234.16 374.08 220.48C384.64 206.56 393.52 192.64 401.44 179.2C392.8 177.28 384.64 174.64 376.72 171.04C369.086 167.12 362.12 162.017 356.08 155.92V155.92ZM448 64C448 64 445.84 73.12 440.8 89.44C436 106.24 427.6 127.36 415.36 153.28C398.56 151.36 384.88 145.36 375.52 136C366.16 126.64 360.4 113.44 358.72 96.64C384.64 84.16 405.52 75.52 422.08 70.72C438.88 65.92 448 64 448 64Z" fill="white"/>
</svg>
